<?xml version="1.0" encoding="UTF-8" standalone="no"?>
<!DOCTYPE svg PUBLIC "-//W3C//DTD SVG 1.1//EN"
 "http://www.w3.org/Graphics/SVG/1.1/DTD/svg11.dtd">
<!-- Generated by graphviz version 2.43.0 (0)
 -->
<!-- Title: Process Pages: 1 -->
<svg width="181pt" height="210pt"
 viewBox="0.00 0.00 181.00 210.00" xmlns="http://www.w3.org/2000/svg" xmlns:xlink="http://www.w3.org/1999/xlink">
<g id="graph0" class="graph" transform="scale(1 1) rotate(0) translate(4 206)">
<title>Process</title>
<polygon fill="white" stroke="transparent" points="-4,4 -4,-206 177,-206 177,4 -4,4"/>
<!-- 111669149697 -->
<g id="node1" class="node">
<title>111669149697</title>
<polygon fill="none" stroke="black" points="137.5,-202 35.5,-202 35.5,-164 137.5,-164 137.5,-202"/>
<text text-anchor="start" x="43.5" y="-186.8" font-family="Times,serif" font-size="14.00">METHOD, 4</text>
<text text-anchor="start" x="58.5" y="-171.8" font-family="Times,serif" font-size="14.00">Process</text>
</g>
<!-- 115964116994 -->
<g id="node3" class="node">
<title>115964116994</title>
<polygon fill="none" stroke="black" points="130,-127 43,-127 43,-89 130,-89 130,-127"/>
<text text-anchor="start" x="51" y="-111.8" font-family="Times,serif" font-size="14.00">PARAM, 4</text>
<text text-anchor="start" x="72.5" y="-96.8" font-family="Times,serif" font-size="14.00">this</text>
</g>
<!-- 111669149697&#45;&gt;115964116994 -->
<g id="edge2" class="edge">
<title>111669149697&#45;&gt;115964116994</title>
<path fill="none" stroke="black" d="M86.5,-163.96C86.5,-155.88 86.5,-146.18 86.5,-137.18"/>
<polygon fill="black" stroke="black" points="90,-137.09 86.5,-127.09 83,-137.09 90,-137.09"/>
</g>
<!-- 128849018881 -->
<g id="node2" class="node">
<title>128849018881</title>
<polygon fill="none" stroke="black" points="173,-38 0,-38 0,0 173,0 173,-38"/>
<text text-anchor="start" x="8" y="-22.8" font-family="Times,serif" font-size="14.00">METHOD_RETURN, 4</text>
<text text-anchor="start" x="42" y="-7.8" font-family="Times,serif" font-size="14.00">System.Void</text>
</g>
<!-- 115964116994&#45;&gt;128849018881 -->
<g id="edge1" class="edge">
<title>115964116994&#45;&gt;128849018881</title>
<path fill="none" stroke="black" d="M86.5,-88.97C86.5,-77.19 86.5,-61.56 86.5,-48.16"/>
<polygon fill="black" stroke="black" points="90,-48 86.5,-38 83,-48 90,-48"/>
<text text-anchor="middle" x="100.5" y="-59.8" font-family="Times,serif" font-size="14.00">this</text>
</g>
</g>
</svg>
