<?xml version="1.0" encoding="UTF-8" standalone="no"?>
<!DOCTYPE svg PUBLIC "-//W3C//DTD SVG 1.1//EN"
 "http://www.w3.org/Graphics/SVG/1.1/DTD/svg11.dtd">
<!-- Generated by graphviz version 2.43.0 (0)
 -->
<!-- Title: &lt;operator&gt;.lessThan Pages: 1 -->
<svg width="178pt" height="210pt"
 viewBox="0.00 0.00 178.00 210.00" xmlns="http://www.w3.org/2000/svg" xmlns:xlink="http://www.w3.org/1999/xlink">
<g id="graph0" class="graph" transform="scale(1 1) rotate(0) translate(4 206)">
<title>&lt;operator&gt;.lessThan</title>
<polygon fill="white" stroke="transparent" points="-4,4 -4,-206 174,-206 174,4 -4,4"/>
<!-- 111669149708 -->
<g id="node1" class="node">
<title>111669149708</title>
<polygon fill="none" stroke="black" points="170,-202 0,-202 0,-164 170,-164 170,-202"/>
<text text-anchor="start" x="50.5" y="-186.8" font-family="Times,serif" font-size="14.00">METHOD</text>
<text text-anchor="start" x="8" y="-171.8" font-family="Times,serif" font-size="14.00">&lt;operator&gt;.lessThan</text>
</g>
<!-- 115964117011 -->
<g id="node3" class="node">
<title>115964117011</title>
<polygon fill="none" stroke="black" points="76.5,-127 7.5,-127 7.5,-89 76.5,-89 76.5,-127"/>
<text text-anchor="start" x="15.5" y="-111.8" font-family="Times,serif" font-size="14.00">PARAM</text>
<text text-anchor="start" x="32.5" y="-96.8" font-family="Times,serif" font-size="14.00">p1</text>
</g>
<!-- 111669149708&#45;&gt;115964117011 -->
<g id="edge3" class="edge">
<title>111669149708&#45;&gt;115964117011</title>
<path fill="none" stroke="black" d="M74.37,-163.96C69.36,-155.44 63.27,-145.12 57.74,-135.72"/>
<polygon fill="black" stroke="black" points="60.75,-133.93 52.66,-127.09 54.72,-137.48 60.75,-133.93"/>
</g>
<!-- 115964117012 -->
<g id="node4" class="node">
<title>115964117012</title>
<polygon fill="none" stroke="black" points="163.5,-127 94.5,-127 94.5,-89 163.5,-89 163.5,-127"/>
<text text-anchor="start" x="102.5" y="-111.8" font-family="Times,serif" font-size="14.00">PARAM</text>
<text text-anchor="start" x="119.5" y="-96.8" font-family="Times,serif" font-size="14.00">p2</text>
</g>
<!-- 111669149708&#45;&gt;115964117012 -->
<g id="edge4" class="edge">
<title>111669149708&#45;&gt;115964117012</title>
<path fill="none" stroke="black" d="M95.88,-163.96C101.01,-155.44 107.23,-145.12 112.89,-135.72"/>
<polygon fill="black" stroke="black" points="115.93,-137.46 118.1,-127.09 109.94,-133.85 115.93,-137.46"/>
</g>
<!-- 128849018892 -->
<g id="node2" class="node">
<title>128849018892</title>
<polygon fill="none" stroke="black" points="163,-38 7,-38 7,0 163,0 163,-38"/>
<text text-anchor="start" x="15" y="-22.8" font-family="Times,serif" font-size="14.00">METHOD_RETURN</text>
<text text-anchor="start" x="69.5" y="-7.8" font-family="Times,serif" font-size="14.00">ANY</text>
</g>
<!-- 115964117011&#45;&gt;128849018892 -->
<g id="edge1" class="edge">
<title>115964117011&#45;&gt;128849018892</title>
<path fill="none" stroke="black" d="M50.91,-88.97C56.91,-76.84 64.92,-60.63 71.67,-46.97"/>
<polygon fill="black" stroke="black" points="74.81,-48.52 76.1,-38 68.53,-45.42 74.81,-48.52"/>
<text text-anchor="middle" x="76.5" y="-59.8" font-family="Times,serif" font-size="14.00">p1</text>
</g>
<!-- 115964117012&#45;&gt;128849018892 -->
<g id="edge2" class="edge">
<title>115964117012&#45;&gt;128849018892</title>
<path fill="none" stroke="black" d="M119.88,-88.97C113.75,-76.84 105.55,-60.63 98.64,-46.97"/>
<polygon fill="black" stroke="black" points="101.74,-45.35 94.11,-38 95.5,-48.51 101.74,-45.35"/>
<text text-anchor="middle" x="118.5" y="-59.8" font-family="Times,serif" font-size="14.00">p2</text>
</g>
</g>
</svg>
