<?xml version="1.0" encoding="UTF-8" standalone="no"?>
<!DOCTYPE svg PUBLIC "-//W3C//DTD SVG 1.1//EN"
 "http://www.w3.org/Graphics/SVG/1.1/DTD/svg11.dtd">
<!-- Generated by graphviz version 2.43.0 (0)
 -->
<!-- Title: &lt;operator&gt;.indexAccess Pages: 1 -->
<svg width="202pt" height="210pt"
 viewBox="0.00 0.00 202.00 210.00" xmlns="http://www.w3.org/2000/svg" xmlns:xlink="http://www.w3.org/1999/xlink">
<g id="graph0" class="graph" transform="scale(1 1) rotate(0) translate(4 206)">
<title>&lt;operator&gt;.indexAccess</title>
<polygon fill="white" stroke="transparent" points="-4,4 -4,-206 198,-206 198,4 -4,4"/>
<!-- 111669149710 -->
<g id="node1" class="node">
<title>111669149710</title>
<polygon fill="none" stroke="black" points="194,-202 0,-202 0,-164 194,-164 194,-202"/>
<text text-anchor="start" x="62.5" y="-186.8" font-family="Times,serif" font-size="14.00">METHOD</text>
<text text-anchor="start" x="8" y="-171.8" font-family="Times,serif" font-size="14.00">&lt;operator&gt;.indexAccess</text>
</g>
<!-- 115964117015 -->
<g id="node3" class="node">
<title>115964117015</title>
<polygon fill="none" stroke="black" points="88.5,-127 19.5,-127 19.5,-89 88.5,-89 88.5,-127"/>
<text text-anchor="start" x="27.5" y="-111.8" font-family="Times,serif" font-size="14.00">PARAM</text>
<text text-anchor="start" x="44.5" y="-96.8" font-family="Times,serif" font-size="14.00">p1</text>
</g>
<!-- 111669149710&#45;&gt;115964117015 -->
<g id="edge3" class="edge">
<title>111669149710&#45;&gt;115964117015</title>
<path fill="none" stroke="black" d="M86.37,-163.96C81.36,-155.44 75.27,-145.12 69.74,-135.72"/>
<polygon fill="black" stroke="black" points="72.75,-133.93 64.66,-127.09 66.72,-137.48 72.75,-133.93"/>
</g>
<!-- 115964117016 -->
<g id="node4" class="node">
<title>115964117016</title>
<polygon fill="none" stroke="black" points="175.5,-127 106.5,-127 106.5,-89 175.5,-89 175.5,-127"/>
<text text-anchor="start" x="114.5" y="-111.8" font-family="Times,serif" font-size="14.00">PARAM</text>
<text text-anchor="start" x="131.5" y="-96.8" font-family="Times,serif" font-size="14.00">p2</text>
</g>
<!-- 111669149710&#45;&gt;115964117016 -->
<g id="edge4" class="edge">
<title>111669149710&#45;&gt;115964117016</title>
<path fill="none" stroke="black" d="M107.88,-163.96C113.01,-155.44 119.23,-145.12 124.89,-135.72"/>
<polygon fill="black" stroke="black" points="127.93,-137.46 130.1,-127.09 121.94,-133.85 127.93,-137.46"/>
</g>
<!-- 128849018894 -->
<g id="node2" class="node">
<title>128849018894</title>
<polygon fill="none" stroke="black" points="175,-38 19,-38 19,0 175,0 175,-38"/>
<text text-anchor="start" x="27" y="-22.8" font-family="Times,serif" font-size="14.00">METHOD_RETURN</text>
<text text-anchor="start" x="81.5" y="-7.8" font-family="Times,serif" font-size="14.00">ANY</text>
</g>
<!-- 115964117015&#45;&gt;128849018894 -->
<g id="edge1" class="edge">
<title>115964117015&#45;&gt;128849018894</title>
<path fill="none" stroke="black" d="M62.91,-88.97C68.91,-76.84 76.92,-60.63 83.67,-46.97"/>
<polygon fill="black" stroke="black" points="86.81,-48.52 88.1,-38 80.53,-45.42 86.81,-48.52"/>
<text text-anchor="middle" x="88.5" y="-59.8" font-family="Times,serif" font-size="14.00">p1</text>
</g>
<!-- 115964117016&#45;&gt;128849018894 -->
<g id="edge2" class="edge">
<title>115964117016&#45;&gt;128849018894</title>
<path fill="none" stroke="black" d="M131.88,-88.97C125.75,-76.84 117.55,-60.63 110.64,-46.97"/>
<polygon fill="black" stroke="black" points="113.74,-45.35 106.11,-38 107.5,-48.51 113.74,-45.35"/>
<text text-anchor="middle" x="130.5" y="-59.8" font-family="Times,serif" font-size="14.00">p2</text>
</g>
</g>
</svg>
