<?xml version="1.0" encoding="UTF-8" standalone="no"?>
<!DOCTYPE svg PUBLIC "-//W3C//DTD SVG 1.1//EN"
 "http://www.w3.org/Graphics/SVG/1.1/DTD/svg11.dtd">
<!-- Generated by graphviz version 2.43.0 (0)
 -->
<!-- Title: ReadKey Pages: 1 -->
<svg width="164pt" height="210pt"
 viewBox="0.00 0.00 164.00 210.00" xmlns="http://www.w3.org/2000/svg" xmlns:xlink="http://www.w3.org/1999/xlink">
<g id="graph0" class="graph" transform="scale(1 1) rotate(0) translate(4 206)">
<title>ReadKey</title>
<polygon fill="white" stroke="transparent" points="-4,4 -4,-206 160,-206 160,4 -4,4"/>
<!-- 111669149715 -->
<g id="node1" class="node">
<title>111669149715</title>
<polygon fill="none" stroke="black" points="120.5,-202 35.5,-202 35.5,-164 120.5,-164 120.5,-202"/>
<text text-anchor="start" x="43.5" y="-186.8" font-family="Times,serif" font-size="14.00">METHOD</text>
<text text-anchor="start" x="46.5" y="-171.8" font-family="Times,serif" font-size="14.00">ReadKey</text>
</g>
<!-- 115964117024 -->
<g id="node3" class="node">
<title>115964117024</title>
<polygon fill="none" stroke="black" points="112.5,-127 43.5,-127 43.5,-89 112.5,-89 112.5,-127"/>
<text text-anchor="start" x="51.5" y="-111.8" font-family="Times,serif" font-size="14.00">PARAM</text>
<text text-anchor="start" x="68.5" y="-96.8" font-family="Times,serif" font-size="14.00">p0</text>
</g>
<!-- 111669149715&#45;&gt;115964117024 -->
<g id="edge2" class="edge">
<title>111669149715&#45;&gt;115964117024</title>
<path fill="none" stroke="black" d="M78,-163.96C78,-155.88 78,-146.18 78,-137.18"/>
<polygon fill="black" stroke="black" points="81.5,-137.09 78,-127.09 74.5,-137.09 81.5,-137.09"/>
</g>
<!-- 128849018899 -->
<g id="node2" class="node">
<title>128849018899</title>
<polygon fill="none" stroke="black" points="156,-38 0,-38 0,0 156,0 156,-38"/>
<text text-anchor="start" x="8" y="-22.8" font-family="Times,serif" font-size="14.00">METHOD_RETURN</text>
<text text-anchor="start" x="62.5" y="-7.8" font-family="Times,serif" font-size="14.00">ANY</text>
</g>
<!-- 115964117024&#45;&gt;128849018899 -->
<g id="edge1" class="edge">
<title>115964117024&#45;&gt;128849018899</title>
<path fill="none" stroke="black" d="M78,-88.97C78,-77.19 78,-61.56 78,-48.16"/>
<polygon fill="black" stroke="black" points="81.5,-48 78,-38 74.5,-48 81.5,-48"/>
<text text-anchor="middle" x="87.5" y="-59.8" font-family="Times,serif" font-size="14.00">p0</text>
</g>
</g>
</svg>
