<?xml version="1.0" encoding="UTF-8" standalone="no"?>
<!DOCTYPE svg PUBLIC "-//W3C//DTD SVG 1.1//EN"
 "http://www.w3.org/Graphics/SVG/1.1/DTD/svg11.dtd">
<!-- Generated by graphviz version 2.43.0 (0)
 -->
<!-- Title: &lt;operator&gt;.indexAccess Pages: 1 -->
<svg width="443pt" height="120pt"
 viewBox="0.00 0.00 442.50 120.00" xmlns="http://www.w3.org/2000/svg" xmlns:xlink="http://www.w3.org/1999/xlink">
<g id="graph0" class="graph" transform="scale(1 1) rotate(0) translate(4 116)">
<title>&lt;operator&gt;.indexAccess</title>
<polygon fill="white" stroke="transparent" points="-4,4 -4,-116 438.5,-116 438.5,4 -4,4"/>
<!-- 111669149710 -->
<g id="node1" class="node">
<title>111669149710</title>
<polygon fill="none" stroke="black" points="266.5,-112 72.5,-112 72.5,-74 266.5,-74 266.5,-112"/>
<text text-anchor="start" x="135" y="-96.8" font-family="Times,serif" font-size="14.00">METHOD</text>
<text text-anchor="start" x="80.5" y="-81.8" font-family="Times,serif" font-size="14.00">&lt;operator&gt;.indexAccess</text>
</g>
<!-- 115964117015 -->
<g id="node2" class="node">
<title>115964117015</title>
<polygon fill="none" stroke="black" points="69,-38 0,-38 0,0 69,0 69,-38"/>
<text text-anchor="start" x="8" y="-22.8" font-family="Times,serif" font-size="14.00">PARAM</text>
<text text-anchor="start" x="25" y="-7.8" font-family="Times,serif" font-size="14.00">p1</text>
</g>
<!-- 111669149710&#45;&gt;115964117015 -->
<g id="edge1" class="edge">
<title>111669149710&#45;&gt;115964117015</title>
<path fill="none" stroke="black" d="M135.43,-73.83C117.85,-64.45 96.21,-52.91 77.48,-42.92"/>
<polygon fill="black" stroke="black" points="79.03,-39.78 68.56,-38.16 75.73,-45.96 79.03,-39.78"/>
</g>
<!-- 115964117016 -->
<g id="node3" class="node">
<title>115964117016</title>
<polygon fill="none" stroke="black" points="156,-38 87,-38 87,0 156,0 156,-38"/>
<text text-anchor="start" x="95" y="-22.8" font-family="Times,serif" font-size="14.00">PARAM</text>
<text text-anchor="start" x="112" y="-7.8" font-family="Times,serif" font-size="14.00">p2</text>
</g>
<!-- 111669149710&#45;&gt;115964117016 -->
<g id="edge3" class="edge">
<title>111669149710&#45;&gt;115964117016</title>
<path fill="none" stroke="black" d="M157.39,-73.83C151.97,-65.71 145.48,-55.96 139.51,-47.01"/>
<polygon fill="black" stroke="black" points="142.23,-44.79 133.78,-38.41 136.41,-48.68 142.23,-44.79"/>
</g>
<!-- 25769803791 -->
<g id="node4" class="node">
<title>25769803791</title>
<polygon fill="none" stroke="black" points="260.5,-38 174.5,-38 174.5,0 260.5,0 260.5,-38"/>
<text text-anchor="start" x="191.5" y="-22.8" font-family="Times,serif" font-size="14.00">BLOCK</text>
<text text-anchor="start" x="182.5" y="-7.8" font-family="Times,serif" font-size="14.00">&lt;empty&gt;</text>
</g>
<!-- 111669149710&#45;&gt;25769803791 -->
<g id="edge2" class="edge">
<title>111669149710&#45;&gt;25769803791</title>
<path fill="none" stroke="black" d="M181.61,-73.83C187.03,-65.71 193.52,-55.96 199.49,-47.01"/>
<polygon fill="black" stroke="black" points="202.59,-48.68 205.22,-38.41 196.77,-44.79 202.59,-48.68"/>
</g>
<!-- 128849018894 -->
<g id="node5" class="node">
<title>128849018894</title>
<polygon fill="none" stroke="black" points="434.5,-38 278.5,-38 278.5,0 434.5,0 434.5,-38"/>
<text text-anchor="start" x="286.5" y="-22.8" font-family="Times,serif" font-size="14.00">METHOD_RETURN</text>
<text text-anchor="start" x="341" y="-7.8" font-family="Times,serif" font-size="14.00">ANY</text>
</g>
<!-- 111669149710&#45;&gt;128849018894 -->
<g id="edge4" class="edge">
<title>111669149710&#45;&gt;128849018894</title>
<path fill="none" stroke="black" d="M216.69,-73.83C242.03,-64.07 273.45,-51.98 300.08,-41.72"/>
<polygon fill="black" stroke="black" points="301.58,-44.9 309.65,-38.04 299.06,-38.36 301.58,-44.9"/>
</g>
</g>
</svg>
