<?xml version="1.0" encoding="UTF-8" standalone="no"?>
<!DOCTYPE svg PUBLIC "-//W3C//DTD SVG 1.1//EN"
 "http://www.w3.org/Graphics/SVG/1.1/DTD/svg11.dtd">
<!-- Generated by graphviz version 2.43.0 (0)
 -->
<!-- Title: &lt;init&gt; Pages: 1 -->
<svg width="824pt" height="372pt"
 viewBox="0.00 0.00 824.00 372.00" xmlns="http://www.w3.org/2000/svg" xmlns:xlink="http://www.w3.org/1999/xlink">
<g id="graph0" class="graph" transform="scale(1 1) rotate(0) translate(4 368)">
<title>&lt;init&gt;</title>
<polygon fill="white" stroke="transparent" points="-4,4 -4,-368 820,-368 820,4 -4,4"/>
<!-- 111669149702 -->
<g id="node1" class="node">
<title>111669149702</title>
<polygon fill="none" stroke="black" points="409.5,-364 307.5,-364 307.5,-326 409.5,-326 409.5,-364"/>
<text text-anchor="start" x="315.5" y="-348.8" font-family="Times,serif" font-size="14.00">METHOD, 6</text>
<text text-anchor="start" x="334" y="-333.8" font-family="Times,serif" font-size="14.00">&lt;init&gt;</text>
</g>
<!-- 115964117001 -->
<g id="node2" class="node">
<title>115964117001</title>
<polygon fill="none" stroke="black" points="87,-290 0,-290 0,-252 87,-252 87,-290"/>
<text text-anchor="start" x="8" y="-274.8" font-family="Times,serif" font-size="14.00">PARAM, 6</text>
<text text-anchor="start" x="29.5" y="-259.8" font-family="Times,serif" font-size="14.00">this</text>
</g>
<!-- 111669149702&#45;&gt;115964117001 -->
<g id="edge1" class="edge">
<title>111669149702&#45;&gt;115964117001</title>
<path fill="none" stroke="black" d="M307.34,-335.4C256.39,-326.4 175.82,-311 97.13,-289.99"/>
<polygon fill="black" stroke="black" points="97.61,-286.5 87.04,-287.27 95.78,-293.25 97.61,-286.5"/>
</g>
<!-- 115964117002 -->
<g id="node3" class="node">
<title>115964117002</title>
<polygon fill="none" stroke="black" points="238,-290 105,-290 105,-252 238,-252 238,-290"/>
<text text-anchor="start" x="136" y="-274.8" font-family="Times,serif" font-size="14.00">PARAM, 6</text>
<text text-anchor="start" x="113" y="-259.8" font-family="Times,serif" font-size="14.00">INotifier notifier</text>
</g>
<!-- 111669149702&#45;&gt;115964117002 -->
<g id="edge2" class="edge">
<title>111669149702&#45;&gt;115964117002</title>
<path fill="none" stroke="black" d="M311.31,-325.83C285.97,-316.07 254.55,-303.98 227.92,-293.72"/>
<polygon fill="black" stroke="black" points="228.94,-290.36 218.35,-290.04 226.42,-296.9 228.94,-290.36"/>
</g>
<!-- 25769803783 -->
<g id="node4" class="node">
<title>25769803783</title>
<polygon fill="none" stroke="black" points="342.5,-290 256.5,-290 256.5,-252 342.5,-252 342.5,-290"/>
<text text-anchor="start" x="264.5" y="-274.8" font-family="Times,serif" font-size="14.00">BLOCK, 7</text>
<text text-anchor="start" x="264.5" y="-259.8" font-family="Times,serif" font-size="14.00">&lt;empty&gt;</text>
</g>
<!-- 111669149702&#45;&gt;25769803783 -->
<g id="edge3" class="edge">
<title>111669149702&#45;&gt;25769803783</title>
<path fill="none" stroke="black" d="M343.61,-325.83C336.75,-317.45 328.47,-307.35 320.95,-298.17"/>
<polygon fill="black" stroke="black" points="323.63,-295.93 314.59,-290.41 318.22,-300.37 323.63,-295.93"/>
</g>
<!-- 133143986193 -->
<g id="node10" class="node">
<title>133143986193</title>
<polygon fill="none" stroke="black" points="474,-290 361,-290 361,-252 474,-252 474,-290"/>
<text text-anchor="start" x="369" y="-274.8" font-family="Times,serif" font-size="14.00">MODIFIER, 6</text>
<text text-anchor="start" x="389" y="-259.8" font-family="Times,serif" font-size="14.00">PUBLIC</text>
</g>
<!-- 111669149702&#45;&gt;133143986193 -->
<g id="edge4" class="edge">
<title>111669149702&#45;&gt;133143986193</title>
<path fill="none" stroke="black" d="M373.39,-325.83C380.25,-317.45 388.53,-307.35 396.05,-298.17"/>
<polygon fill="black" stroke="black" points="398.78,-300.37 402.41,-290.41 393.37,-295.93 398.78,-300.37"/>
</g>
<!-- 133143986194 -->
<g id="node11" class="node">
<title>133143986194</title>
<polygon fill="none" stroke="black" points="625,-290 492,-290 492,-252 625,-252 625,-290"/>
<text text-anchor="start" x="510" y="-274.8" font-family="Times,serif" font-size="14.00">MODIFIER, 6</text>
<text text-anchor="start" x="500" y="-259.8" font-family="Times,serif" font-size="14.00">CONSTRUCTOR</text>
</g>
<!-- 111669149702&#45;&gt;133143986194 -->
<g id="edge5" class="edge">
<title>111669149702&#45;&gt;133143986194</title>
<path fill="none" stroke="black" d="M408.71,-325.92C436.05,-316.08 470.06,-303.84 498.76,-293.51"/>
<polygon fill="black" stroke="black" points="500.05,-296.76 508.27,-290.08 497.67,-290.18 500.05,-296.76"/>
</g>
<!-- 128849018886 -->
<g id="node12" class="node">
<title>128849018886</title>
<polygon fill="none" stroke="black" points="816,-290 643,-290 643,-252 816,-252 816,-290"/>
<text text-anchor="start" x="651" y="-274.8" font-family="Times,serif" font-size="14.00">METHOD_RETURN, 6</text>
<text text-anchor="start" x="685" y="-259.8" font-family="Times,serif" font-size="14.00">System.Void</text>
</g>
<!-- 111669149702&#45;&gt;128849018886 -->
<g id="edge6" class="edge">
<title>111669149702&#45;&gt;128849018886</title>
<path fill="none" stroke="black" d="M409.7,-334.06C467.13,-322.92 561.57,-304.59 632.97,-290.73"/>
<polygon fill="black" stroke="black" points="633.74,-294.15 642.89,-288.81 632.41,-287.28 633.74,-294.15"/>
</g>
<!-- 30064771090 -->
<g id="node5" class="node">
<title>30064771090</title>
<polygon fill="none" stroke="black" points="403,-216 196,-216 196,-178 403,-178 403,-216"/>
<text text-anchor="start" x="204" y="-200.8" font-family="Times,serif" font-size="14.00">&lt;operator&gt;.assignment, 8</text>
<text text-anchor="start" x="233.5" y="-185.8" font-family="Times,serif" font-size="14.00">_notifier = notifier</text>
</g>
<!-- 25769803783&#45;&gt;30064771090 -->
<g id="edge7" class="edge">
<title>25769803783&#45;&gt;30064771090</title>
<path fill="none" stroke="black" d="M299.5,-251.83C299.5,-244.13 299.5,-234.97 299.5,-226.42"/>
<polygon fill="black" stroke="black" points="303,-226.41 299.5,-216.41 296,-226.41 303,-226.41"/>
</g>
<!-- 30064771091 -->
<g id="node6" class="node">
<title>30064771091</title>
<polygon fill="none" stroke="black" points="304,-134.5 101,-134.5 101,-96.5 304,-96.5 304,-134.5"/>
<text text-anchor="start" x="109" y="-119.3" font-family="Times,serif" font-size="14.00">&lt;operator&gt;.fieldAccess, 8</text>
<text text-anchor="start" x="157" y="-104.3" font-family="Times,serif" font-size="14.00">this._notifier</text>
</g>
<!-- 30064771090&#45;&gt;30064771091 -->
<g id="edge8" class="edge">
<title>30064771090&#45;&gt;30064771091</title>
<path fill="none" stroke="black" d="M277.49,-177.96C264.19,-167.06 247.06,-153.02 232.52,-141.11"/>
<polygon fill="black" stroke="black" points="234.71,-138.38 224.76,-134.74 230.28,-143.79 234.71,-138.38"/>
</g>
<!-- 68719476757 -->
<g id="node9" class="node">
<title>68719476757</title>
<polygon fill="none" stroke="black" points="470.5,-142 322.5,-142 322.5,-89 470.5,-89 470.5,-142"/>
<text text-anchor="start" x="342.5" y="-126.8" font-family="Times,serif" font-size="14.00">IDENTIFIER, 8</text>
<text text-anchor="start" x="338" y="-111.8" font-family="Times,serif" font-size="14.00">INotifier notifier</text>
<text text-anchor="start" x="330.5" y="-96.8" font-family="Times,serif" font-size="14.00">_notifier = notifier</text>
</g>
<!-- 30064771090&#45;&gt;68719476757 -->
<g id="edge9" class="edge">
<title>30064771090&#45;&gt;68719476757</title>
<path fill="none" stroke="black" d="M321.51,-177.96C332.15,-169.24 345.24,-158.51 357.49,-148.47"/>
<polygon fill="black" stroke="black" points="359.87,-151.05 365.38,-142 355.43,-145.63 359.87,-151.05"/>
</g>
<!-- 68719476756 -->
<g id="node7" class="node">
<title>68719476756</title>
<polygon fill="none" stroke="black" points="186.5,-53 38.5,-53 38.5,0 186.5,0 186.5,-53"/>
<text text-anchor="start" x="58.5" y="-37.8" font-family="Times,serif" font-size="14.00">IDENTIFIER, 8</text>
<text text-anchor="start" x="98.5" y="-22.8" font-family="Times,serif" font-size="14.00">this</text>
<text text-anchor="start" x="46.5" y="-7.8" font-family="Times,serif" font-size="14.00">_notifier = notifier</text>
</g>
<!-- 30064771091&#45;&gt;68719476756 -->
<g id="edge10" class="edge">
<title>30064771091&#45;&gt;68719476756</title>
<path fill="none" stroke="black" d="M183.85,-96.47C173.01,-85.99 159.01,-72.46 146.28,-60.16"/>
<polygon fill="black" stroke="black" points="148.6,-57.53 138.97,-53.09 143.73,-62.56 148.6,-57.53"/>
</g>
<!-- 55834574849 -->
<g id="node8" class="node">
<title>55834574849</title>
<polygon fill="none" stroke="black" points="380.5,-45.5 204.5,-45.5 204.5,-7.5 380.5,-7.5 380.5,-45.5"/>
<text text-anchor="start" x="212.5" y="-30.3" font-family="Times,serif" font-size="14.00">FIELD_IDENTIFIER, 8</text>
<text text-anchor="start" x="263" y="-15.3" font-family="Times,serif" font-size="14.00">_notifier</text>
</g>
<!-- 30064771091&#45;&gt;55834574849 -->
<g id="edge11" class="edge">
<title>30064771091&#45;&gt;55834574849</title>
<path fill="none" stroke="black" d="M221.15,-96.47C234.3,-83.76 252.09,-66.56 266.62,-52.52"/>
<polygon fill="black" stroke="black" points="269.12,-54.97 273.88,-45.5 264.25,-49.94 269.12,-54.97"/>
</g>
</g>
</svg>
