<?xml version="1.0" encoding="UTF-8" standalone="no"?>
<!DOCTYPE svg PUBLIC "-//W3C//DTD SVG 1.1//EN"
 "http://www.w3.org/Graphics/SVG/1.1/DTD/svg11.dtd">
<!-- Generated by graphviz version 2.43.0 (0)
 -->
<!-- Title: CreateWorkers Pages: 1 -->
<svg width="699pt" height="357pt"
 viewBox="0.00 0.00 699.00 357.00" xmlns="http://www.w3.org/2000/svg" xmlns:xlink="http://www.w3.org/1999/xlink">
<g id="graph0" class="graph" transform="scale(1 1) rotate(0) translate(4 353)">
<title>CreateWorkers</title>
<polygon fill="white" stroke="transparent" points="-4,4 -4,-353 695,-353 695,4 -4,4"/>
<!-- 111669149704 -->
<g id="node1" class="node">
<title>111669149704</title>
<polygon fill="none" stroke="black" points="374.5,-349 250.5,-349 250.5,-311 374.5,-311 374.5,-349"/>
<text text-anchor="start" x="269.5" y="-333.8" font-family="Times,serif" font-size="14.00">METHOD, 6</text>
<text text-anchor="start" x="258.5" y="-318.8" font-family="Times,serif" font-size="14.00">CreateWorkers</text>
</g>
<!-- 115964117004 -->
<g id="node2" class="node">
<title>115964117004</title>
<polygon fill="none" stroke="black" points="133,-275 0,-275 0,-237 133,-237 133,-275"/>
<text text-anchor="start" x="31" y="-259.8" font-family="Times,serif" font-size="14.00">PARAM, 6</text>
<text text-anchor="start" x="8" y="-244.8" font-family="Times,serif" font-size="14.00">INotifier notifier</text>
</g>
<!-- 111669149704&#45;&gt;115964117004 -->
<g id="edge1" class="edge">
<title>111669149704&#45;&gt;115964117004</title>
<path fill="none" stroke="black" d="M250.74,-310.92C216.53,-300.91 173.82,-288.41 138.15,-277.97"/>
<polygon fill="black" stroke="black" points="138.86,-274.53 128.28,-275.08 136.9,-281.25 138.86,-274.53"/>
</g>
<!-- 25769803785 -->
<g id="node3" class="node">
<title>25769803785</title>
<polygon fill="none" stroke="black" points="237.5,-275 151.5,-275 151.5,-237 237.5,-237 237.5,-275"/>
<text text-anchor="start" x="159.5" y="-259.8" font-family="Times,serif" font-size="14.00">BLOCK, 7</text>
<text text-anchor="start" x="159.5" y="-244.8" font-family="Times,serif" font-size="14.00">&lt;empty&gt;</text>
</g>
<!-- 111669149704&#45;&gt;25769803785 -->
<g id="edge2" class="edge">
<title>111669149704&#45;&gt;25769803785</title>
<path fill="none" stroke="black" d="M282.72,-310.83C267.63,-301.62 249.12,-290.33 232.97,-280.47"/>
<polygon fill="black" stroke="black" points="234.63,-277.38 224.27,-275.16 230.98,-283.36 234.63,-277.38"/>
</g>
<!-- 133143986198 -->
<g id="node7" class="node">
<title>133143986198</title>
<polygon fill="none" stroke="black" points="369,-275 256,-275 256,-237 369,-237 369,-275"/>
<text text-anchor="start" x="264" y="-259.8" font-family="Times,serif" font-size="14.00">MODIFIER, 6</text>
<text text-anchor="start" x="284" y="-244.8" font-family="Times,serif" font-size="14.00">PUBLIC</text>
</g>
<!-- 111669149704&#45;&gt;133143986198 -->
<g id="edge3" class="edge">
<title>111669149704&#45;&gt;133143986198</title>
<path fill="none" stroke="black" d="M312.5,-310.83C312.5,-303.13 312.5,-293.97 312.5,-285.42"/>
<polygon fill="black" stroke="black" points="316,-285.41 312.5,-275.41 309,-285.41 316,-285.41"/>
</g>
<!-- 133143986199 -->
<g id="node8" class="node">
<title>133143986199</title>
<polygon fill="none" stroke="black" points="500,-275 387,-275 387,-237 500,-237 500,-275"/>
<text text-anchor="start" x="395" y="-259.8" font-family="Times,serif" font-size="14.00">MODIFIER, 6</text>
<text text-anchor="start" x="417.5" y="-244.8" font-family="Times,serif" font-size="14.00">STATIC</text>
</g>
<!-- 111669149704&#45;&gt;133143986199 -->
<g id="edge4" class="edge">
<title>111669149704&#45;&gt;133143986199</title>
<path fill="none" stroke="black" d="M345.56,-310.83C362.47,-301.54 383.24,-290.12 401.29,-280.2"/>
<polygon fill="black" stroke="black" points="403.38,-283.05 410.45,-275.16 400,-276.91 403.38,-283.05"/>
</g>
<!-- 128849018888 -->
<g id="node9" class="node">
<title>128849018888</title>
<polygon fill="none" stroke="black" points="691,-275 518,-275 518,-237 691,-237 691,-275"/>
<text text-anchor="start" x="526" y="-259.8" font-family="Times,serif" font-size="14.00">METHOD_RETURN, 6</text>
<text text-anchor="start" x="558" y="-244.8" font-family="Times,serif" font-size="14.00">IEnumerable</text>
</g>
<!-- 111669149704&#45;&gt;128849018888 -->
<g id="edge5" class="edge">
<title>111669149704&#45;&gt;128849018888</title>
<path fill="none" stroke="black" d="M374.78,-313.64C417.63,-303.08 475,-288.93 521.69,-277.42"/>
<polygon fill="black" stroke="black" points="522.61,-280.8 531.49,-275 520.94,-274 522.61,-280.8"/>
</g>
<!-- 146028888065 -->
<g id="node4" class="node">
<title>146028888065</title>
<polygon fill="none" stroke="black" points="314.5,-201 74.5,-201 74.5,-163 314.5,-163 314.5,-201"/>
<text text-anchor="start" x="153.5" y="-185.8" font-family="Times,serif" font-size="14.00">RETURN, 9</text>
<text text-anchor="start" x="82.5" y="-170.8" font-family="Times,serif" font-size="14.00">return new List&lt;IWorker&gt; { ...</text>
</g>
<!-- 25769803785&#45;&gt;146028888065 -->
<g id="edge6" class="edge">
<title>25769803785&#45;&gt;146028888065</title>
<path fill="none" stroke="black" d="M194.5,-236.83C194.5,-229.13 194.5,-219.97 194.5,-211.42"/>
<polygon fill="black" stroke="black" points="198,-211.41 194.5,-201.41 191,-211.41 198,-211.41"/>
</g>
<!-- 30064771098 -->
<g id="node5" class="node">
<title>30064771098</title>
<polygon fill="none" stroke="black" points="289.5,-127 99.5,-127 99.5,-89 289.5,-89 289.5,-127"/>
<text text-anchor="start" x="161" y="-111.8" font-family="Times,serif" font-size="14.00">&lt;init&gt;, 9</text>
<text text-anchor="start" x="107.5" y="-96.8" font-family="Times,serif" font-size="14.00">new List&lt;IWorker&gt; { ...</text>
</g>
<!-- 146028888065&#45;&gt;30064771098 -->
<g id="edge7" class="edge">
<title>146028888065&#45;&gt;30064771098</title>
<path fill="none" stroke="black" d="M194.5,-162.83C194.5,-155.13 194.5,-145.97 194.5,-137.42"/>
<polygon fill="black" stroke="black" points="198,-137.41 194.5,-127.41 191,-137.41 198,-137.41"/>
</g>
<!-- 68719476763 -->
<g id="node6" class="node">
<title>68719476763</title>
<polygon fill="none" stroke="black" points="289.5,-53 99.5,-53 99.5,0 289.5,0 289.5,-53"/>
<text text-anchor="start" x="149.5" y="-37.8" font-family="Times,serif" font-size="14.00">IDENTIFIER</text>
<text text-anchor="start" x="180.5" y="-22.8" font-family="Times,serif" font-size="14.00">this</text>
<text text-anchor="start" x="107.5" y="-7.8" font-family="Times,serif" font-size="14.00">new List&lt;IWorker&gt; { ...</text>
</g>
<!-- 30064771098&#45;&gt;68719476763 -->
<g id="edge8" class="edge">
<title>30064771098&#45;&gt;68719476763</title>
<path fill="none" stroke="black" d="M194.5,-88.96C194.5,-81.32 194.5,-72.14 194.5,-63.23"/>
<polygon fill="black" stroke="black" points="198,-63 194.5,-53 191,-63 198,-63"/>
</g>
</g>
</svg>
