<?xml version="1.0" encoding="UTF-8" standalone="no"?>
<!DOCTYPE svg PUBLIC "-//W3C//DTD SVG 1.1//EN"
 "http://www.w3.org/Graphics/SVG/1.1/DTD/svg11.dtd">
<!-- Generated by graphviz version 2.43.0 (0)
 -->
<!-- Title: Notify Pages: 1 -->
<svg width="240pt" height="210pt"
 viewBox="0.00 0.00 239.50 210.00" xmlns="http://www.w3.org/2000/svg" xmlns:xlink="http://www.w3.org/1999/xlink">
<g id="graph0" class="graph" transform="scale(1 1) rotate(0) translate(4 206)">
<title>Notify</title>
<polygon fill="white" stroke="transparent" points="-4,4 -4,-206 235.5,-206 235.5,4 -4,4"/>
<!-- 111669149696 -->
<g id="node1" class="node">
<title>111669149696</title>
<polygon fill="none" stroke="black" points="156.5,-202 54.5,-202 54.5,-164 156.5,-164 156.5,-202"/>
<text text-anchor="start" x="62.5" y="-186.8" font-family="Times,serif" font-size="14.00">METHOD, 4</text>
<text text-anchor="start" x="83" y="-171.8" font-family="Times,serif" font-size="14.00">Notify</text>
</g>
<!-- 115964116992 -->
<g id="node3" class="node">
<title>115964116992</title>
<polygon fill="none" stroke="black" points="87,-127 0,-127 0,-89 87,-89 87,-127"/>
<text text-anchor="start" x="8" y="-111.8" font-family="Times,serif" font-size="14.00">PARAM, 4</text>
<text text-anchor="start" x="29.5" y="-96.8" font-family="Times,serif" font-size="14.00">this</text>
</g>
<!-- 111669149696&#45;&gt;115964116992 -->
<g id="edge3" class="edge">
<title>111669149696&#45;&gt;115964116992</title>
<path fill="none" stroke="black" d="M90.17,-163.96C82.72,-155.18 73.63,-144.48 65.46,-134.85"/>
<polygon fill="black" stroke="black" points="68.01,-132.45 58.86,-127.09 62.67,-136.98 68.01,-132.45"/>
</g>
<!-- 115964116993 -->
<g id="node4" class="node">
<title>115964116993</title>
<polygon fill="none" stroke="black" points="231.5,-127 105.5,-127 105.5,-89 231.5,-89 231.5,-127"/>
<text text-anchor="start" x="133" y="-111.8" font-family="Times,serif" font-size="14.00">PARAM, 4</text>
<text text-anchor="start" x="113.5" y="-96.8" font-family="Times,serif" font-size="14.00">string message</text>
</g>
<!-- 111669149696&#45;&gt;115964116993 -->
<g id="edge4" class="edge">
<title>111669149696&#45;&gt;115964116993</title>
<path fill="none" stroke="black" d="M121.07,-163.96C128.65,-155.18 137.88,-144.48 146.19,-134.85"/>
<polygon fill="black" stroke="black" points="149,-136.95 152.89,-127.09 143.7,-132.37 149,-136.95"/>
</g>
<!-- 128849018880 -->
<g id="node2" class="node">
<title>128849018880</title>
<polygon fill="none" stroke="black" points="192,-38 19,-38 19,0 192,0 192,-38"/>
<text text-anchor="start" x="27" y="-22.8" font-family="Times,serif" font-size="14.00">METHOD_RETURN, 4</text>
<text text-anchor="start" x="61" y="-7.8" font-family="Times,serif" font-size="14.00">System.Void</text>
</g>
<!-- 115964116992&#45;&gt;128849018880 -->
<g id="edge1" class="edge">
<title>115964116992&#45;&gt;128849018880</title>
<path fill="none" stroke="black" d="M56.35,-88.97C65.16,-76.61 76.99,-60 86.84,-46.18"/>
<polygon fill="black" stroke="black" points="89.72,-48.18 92.67,-38 84.02,-44.12 89.72,-48.18"/>
<text text-anchor="middle" x="92.5" y="-59.8" font-family="Times,serif" font-size="14.00">this</text>
</g>
<!-- 115964116993&#45;&gt;128849018880 -->
<g id="edge2" class="edge">
<title>115964116993&#45;&gt;128849018880</title>
<path fill="none" stroke="black" d="M155.45,-88.97C146.49,-76.61 134.47,-60 124.46,-46.18"/>
<polygon fill="black" stroke="black" points="127.24,-44.05 118.54,-38 121.57,-48.16 127.24,-44.05"/>
<text text-anchor="middle" x="173" y="-59.8" font-family="Times,serif" font-size="14.00">message</text>
</g>
</g>
</svg>
