<?xml version="1.0" encoding="UTF-8" standalone="no"?>
<!DOCTYPE svg PUBLIC "-//W3C//DTD SVG 1.1//EN"
 "http://www.w3.org/Graphics/SVG/1.1/DTD/svg11.dtd">
<!-- Generated by graphviz version 2.43.0 (0)
 -->
<!-- Title: &lt;operator&gt;.postIncrement Pages: 1 -->
<svg width="219pt" height="120pt"
 viewBox="0.00 0.00 219.00 120.00" xmlns="http://www.w3.org/2000/svg" xmlns:xlink="http://www.w3.org/1999/xlink">
<g id="graph0" class="graph" transform="scale(1 1) rotate(0) translate(4 116)">
<title>&lt;operator&gt;.postIncrement</title>
<polygon fill="white" stroke="transparent" points="-4,4 -4,-116 215,-116 215,4 -4,4"/>
<!-- 111669149711 -->
<g id="node1" class="node">
<title>111669149711</title>
<polygon fill="none" stroke="black" points="211,-112 0,-112 0,-74 211,-74 211,-112"/>
<text text-anchor="start" x="71" y="-96.8" font-family="Times,serif" font-size="14.00">METHOD</text>
<text text-anchor="start" x="8" y="-81.8" font-family="Times,serif" font-size="14.00">&lt;operator&gt;.postIncrement</text>
</g>
<!-- 128849018895 -->
<g id="node2" class="node">
<title>128849018895</title>
<polygon fill="none" stroke="black" points="183.5,-38 27.5,-38 27.5,0 183.5,0 183.5,-38"/>
<text text-anchor="start" x="35.5" y="-22.8" font-family="Times,serif" font-size="14.00">METHOD_RETURN</text>
<text text-anchor="start" x="90" y="-7.8" font-family="Times,serif" font-size="14.00">ANY</text>
</g>
<!-- 111669149711&#45;&gt;128849018895 -->
<g id="edge1" class="edge">
<title>111669149711&#45;&gt;128849018895</title>
<path fill="none" stroke="black" d="M105.5,-73.83C105.5,-66.13 105.5,-56.97 105.5,-48.42"/>
<polygon fill="black" stroke="black" points="109,-48.41 105.5,-38.41 102,-48.41 109,-48.41"/>
</g>
</g>
</svg>
