<?xml version="1.0" encoding="UTF-8" standalone="no"?>
<!DOCTYPE svg PUBLIC "-//W3C//DTD SVG 1.1//EN"
 "http://www.w3.org/Graphics/SVG/1.1/DTD/svg11.dtd">
<!-- Generated by graphviz version 2.43.0 (0)
 -->
<!-- Title: &lt;operator&gt;.formatString Pages: 1 -->
<svg width="208pt" height="120pt"
 viewBox="0.00 0.00 208.00 120.00" xmlns="http://www.w3.org/2000/svg" xmlns:xlink="http://www.w3.org/1999/xlink">
<g id="graph0" class="graph" transform="scale(1 1) rotate(0) translate(4 116)">
<title>&lt;operator&gt;.formatString</title>
<polygon fill="white" stroke="transparent" points="-4,4 -4,-116 204,-116 204,4 -4,4"/>
<!-- 111669149713 -->
<g id="node1" class="node">
<title>111669149713</title>
<polygon fill="none" stroke="black" points="200,-112 0,-112 0,-74 200,-74 200,-112"/>
<text text-anchor="start" x="65.5" y="-96.8" font-family="Times,serif" font-size="14.00">METHOD</text>
<text text-anchor="start" x="8" y="-81.8" font-family="Times,serif" font-size="14.00">&lt;operator&gt;.formatString</text>
</g>
<!-- 128849018897 -->
<g id="node2" class="node">
<title>128849018897</title>
<polygon fill="none" stroke="black" points="178,-38 22,-38 22,0 178,0 178,-38"/>
<text text-anchor="start" x="30" y="-22.8" font-family="Times,serif" font-size="14.00">METHOD_RETURN</text>
<text text-anchor="start" x="84.5" y="-7.8" font-family="Times,serif" font-size="14.00">ANY</text>
</g>
<!-- 111669149713&#45;&gt;128849018897 -->
<g id="edge1" class="edge">
<title>111669149713&#45;&gt;128849018897</title>
<path fill="none" stroke="black" d="M100,-73.83C100,-66.13 100,-56.97 100,-48.42"/>
<polygon fill="black" stroke="black" points="103.5,-48.41 100,-38.41 96.5,-48.41 103.5,-48.41"/>
</g>
</g>
</svg>
